<svg width="23" height="23" viewBox="0 0 23 23" fill="none" xmlns="http://www.w3.org/2000/svg">
<path d="M17.8889 0H2.55556C1.13722 0 0 1.15 0 2.55556V20.4444C0 21.85 1.13722 23 2.55556 23H20.4444C21.85 23 23 21.85 23 20.4444V5.11111L17.8889 0ZM11.5 20.4444C9.37889 20.4444 7.66667 18.7322 7.66667 16.6111C7.66667 14.49 9.37889 12.7778 11.5 12.7778C13.6211 12.7778 15.3333 14.49 15.3333 16.6111C15.3333 18.7322 13.6211 20.4444 11.5 20.4444ZM15.3333 7.66667H2.55556V2.55556H15.3333V7.66667Z" fill="#55A79A"/>
</svg>
