<svg width="20" height="20" viewBox="0 0 20 20" fill="none" xmlns="http://www.w3.org/2000/svg">
<path d="M9.99999 0C4.47999 0 0 4.47999 0 9.99999C0 15.52 4.47999 20 9.99999 20C15.52 20 20 15.52 20 9.99999C20 4.47999 15.52 0 9.99999 0ZM9.99999 16.5C9.16999 16.5 8.49999 15.83 8.49999 15H11.5C11.5 15.83 10.83 16.5 9.99999 16.5ZM15 14H4.99999V13L5.99999 12V9.38999C5.99999 7.26999 7.02999 5.46999 8.99999 4.99999V4.5C8.99999 3.93 9.42999 3.5 9.99999 3.5C10.57 3.5 11 3.93 11 4.5V4.99999C12.97 5.46999 14 7.27999 14 9.38999V12L15 13V14Z" fill="#3F3F3F"/>
</svg>
