<svg width="56" height="51" viewBox="0 0 56 51" fill="none" xmlns="http://www.w3.org/2000/svg">
<path d="M53.2 25.816C53.2 10.444 41.272 0 28 0C14.868 0 2.8 10.22 2.8 25.984C1.12 26.936 0 28.728 0 30.8V36.4C0 39.48 2.52 42 5.6 42H8.4V24.92C8.4 14.084 17.164 5.32 28 5.32C38.836 5.32 47.6 14.084 47.6 24.92V44.8H25.2V50.4H47.6C50.68 50.4 53.2 47.88 53.2 44.8V41.384C54.852 40.516 56 38.808 56 36.792V30.352C56 28.392 54.852 26.684 53.2 25.816Z" fill="white"/>
<path d="M19.6 30.8C21.1464 30.8 22.4 29.5464 22.4 28C22.4 26.4536 21.1464 25.2 19.6 25.2C18.0536 25.2 16.8 26.4536 16.8 28C16.8 29.5464 18.0536 30.8 19.6 30.8Z" fill="white"/>
<path d="M36.4 30.8C37.9464 30.8 39.2 29.5464 39.2 28C39.2 26.4536 37.9464 25.2 36.4 25.2C34.8536 25.2 33.6 26.4536 33.6 28C33.6 29.5464 34.8536 30.8 36.4 30.8Z" fill="white"/>
<path d="M44.8 22.484C43.456 14.504 36.512 8.4 28.14 8.4C19.656 8.4 10.528 15.428 11.256 26.46C18.172 23.632 23.38 17.472 24.864 9.968C28.532 17.332 36.064 22.4 44.8 22.484Z" fill="white"/>
</svg>
