<svg width="20" height="20" viewBox="0 0 20 20" fill="none" xmlns="http://www.w3.org/2000/svg">
<path d="M9.99999 0C4.47999 0 0 4.47999 0 9.99999C0 15.52 4.47999 20 9.99999 20C15.52 20 20 15.52 20 9.99999C20 4.47999 15.52 0 9.99999 0ZM9.99999 3C11.66 3 13 4.34 13 5.99999C13 7.65999 11.66 8.99999 9.99999 8.99999C8.33999 8.99999 6.99999 7.65999 6.99999 5.99999C6.99999 4.34 8.33999 3 9.99999 3ZM9.99999 17.2C7.49999 17.2 5.28999 15.92 4 13.98C4.03 11.99 7.99999 10.9 9.99999 10.9C11.99 10.9 15.97 11.99 16 13.98C14.71 15.92 12.5 17.2 9.99999 17.2Z" fill="#3F3F3F"/>
</svg>
