<svg width="17" height="17" viewBox="0 0 17 17" fill="none" xmlns="http://www.w3.org/2000/svg">
<g opacity="0.3" clip-path="url(#clip0_1_2215)">
<path d="M8.50002 1.41666C4.59002 1.41666 1.41669 4.59 1.41669 8.5C1.41669 12.41 4.59002 15.5833 8.50002 15.5833H12.0417V14.1667H8.50002C5.42585 14.1667 2.83335 11.5742 2.83335 8.5C2.83335 5.42583 5.42585 2.83333 8.50002 2.83333C11.5742 2.83333 14.1667 5.42583 14.1667 8.5V9.51291C14.1667 10.0725 13.6638 10.625 13.1042 10.625C12.5446 10.625 12.0417 10.0725 12.0417 9.51291V8.5C12.0417 6.545 10.455 4.95833 8.50002 4.95833C6.54502 4.95833 4.95835 6.545 4.95835 8.5C4.95835 10.455 6.54502 12.0417 8.50002 12.0417C9.47752 12.0417 10.37 11.645 11.0075 11.0004C11.4679 11.6308 12.2613 12.0417 13.1042 12.0417C14.4996 12.0417 15.5834 10.9083 15.5834 9.51291V8.5C15.5834 4.59 12.41 1.41666 8.50002 1.41666ZM8.50002 10.625C7.32419 10.625 6.37502 9.67583 6.37502 8.5C6.37502 7.32416 7.32419 6.375 8.50002 6.375C9.67585 6.375 10.625 7.32416 10.625 8.5C10.625 9.67583 9.67585 10.625 8.50002 10.625Z" fill="black"/>
</g>
<defs>
<clipPath id="clip0_1_2215">
<rect width="17" height="17" fill="white"/>
</clipPath>
</defs>
</svg>
