<svg width="23" height="23" viewBox="0 0 23 23" fill="none" xmlns="http://www.w3.org/2000/svg">
<g clip-path="url(#clip0_1_908)">
<path d="M11.5 1.91675C6.21 1.91675 1.91667 6.21008 1.91667 11.5001C1.91667 16.7901 6.21 21.0834 11.5 21.0834C16.79 21.0834 21.0833 16.7901 21.0833 11.5001C21.0833 6.21008 16.79 1.91675 11.5 1.91675ZM11.5 17.7292C10.7046 17.7292 10.0625 17.0872 10.0625 16.2917H12.9375C12.9375 17.0872 12.2954 17.7292 11.5 17.7292ZM16.2917 15.3334H6.70833V14.3751L7.66667 13.4167V10.9155C7.66667 8.88383 8.65375 7.15883 10.5417 6.70841V6.22925C10.5417 5.683 10.9538 5.27091 11.5 5.27091C12.0463 5.27091 12.4583 5.683 12.4583 6.22925V6.70841C14.3463 7.15883 15.3333 8.89341 15.3333 10.9155V13.4167L16.2917 14.3751V15.3334Z" fill="white"/>
<circle cx="18" cy="5" r="3" fill="#FF4E4E"/>
</g>
<defs>
<clipPath id="clip0_1_908">
<rect width="23" height="23" fill="white"/>
</clipPath>
</defs>
</svg>
