<svg width="15" height="11" viewBox="0 0 15 11" fill="none" xmlns="http://www.w3.org/2000/svg">
<path opacity="0.33" d="M7.5 0C4.09091 0 1.17955 2.28067 0 5.5C1.17955 8.71933 4.09091 11 7.5 11C10.9091 11 13.8205 8.71933 15 5.5C13.8205 2.28067 10.9091 0 7.5 0ZM7.5 9.16667C5.61818 9.16667 4.09091 7.524 4.09091 5.5C4.09091 3.476 5.61818 1.83333 7.5 1.83333C9.38182 1.83333 10.9091 3.476 10.9091 5.5C10.9091 7.524 9.38182 9.16667 7.5 9.16667ZM7.5 3.3C6.36818 3.3 5.45455 4.28267 5.45455 5.5C5.45455 6.71733 6.36818 7.7 7.5 7.7C8.63182 7.7 9.54545 6.71733 9.54545 5.5C9.54545 4.28267 8.63182 3.3 7.5 3.3Z" fill="black"/>
</svg>
